<?xml version="1.0" encoding="UTF-8"?>
<svg version="1.1" xmlns="http://www.w3.org/2000/svg" width="1024" height="1024">
<path d="M0 0 C337.92 0 675.84 0 1024 0 C1024 337.92 1024 675.84 1024 1024 C686.08 1024 348.16 1024 0 1024 C0 686.08 0 348.16 0 0 Z " fill="#FEFEFE" transform="translate(0,0)"/>
<path d="M0 0 C2.22923799 -0.00346288 4.45847427 -0.00823165 6.68770701 -0.01418173 C12.77144412 -0.02663485 18.85503894 -0.02054732 24.93877637 -0.01122308 C30.83937191 -0.00511067 36.73993797 -0.01314218 42.64052941 -0.02066517 C55.44385278 -0.03641287 68.24713107 -0.03511299 81.05045867 -0.02642844 C92.25584814 -0.01886561 103.46122113 -0.01691917 114.66661263 -0.02049637 C115.41145907 -0.02072552 116.15630551 -0.02095468 116.92372306 -0.02119078 C119.94771993 -0.02212488 122.9717168 -0.02308009 125.99571366 -0.02407007 C154.33292078 -0.03323625 182.67009928 -0.02494405 211.00730198 -0.00877938 C236.15133209 0.00545476 261.29531661 0.00418353 286.43934631 -0.01016235 C314.72501005 -0.02624696 343.01064853 -0.03258458 371.29631621 -0.02332556 C374.3149408 -0.02236349 377.33356541 -0.02142497 380.35219002 -0.02049637 C381.09538716 -0.02025914 381.8385843 -0.0200219 382.60430256 -0.01977748 C393.7985351 -0.01637346 404.9927493 -0.02034022 416.18697929 -0.02793503 C428.92357098 -0.03653347 441.66011076 -0.03432448 454.39669602 -0.0180928 C460.89005453 -0.0102308 467.38332073 -0.00708312 473.87667847 -0.01704025 C479.82981694 -0.02603064 485.78277824 -0.02098306 491.73590083 -0.0051076 C493.8803807 -0.00177811 496.02487578 -0.00341215 498.16934573 -0.01073496 C524.97565057 -0.09519355 549.91068183 3.27217092 569.89271545 22.70126343 C570.77830139 23.5855603 571.66388733 24.46985718 572.5763092 25.38095093 C573.24533264 26.0383728 573.91435608 26.69579468 574.60365295 27.37313843 C583.25311276 36.51293042 588.77462706 48.2172121 591.5763092 60.38095093 C591.74308849 61.03708103 591.90986778 61.69321112 592.08170098 62.36922395 C594.29530016 72.38778951 593.85691829 82.58557439 593.83700562 92.78613281 C593.84002823 94.97790576 593.84391826 97.16967766 593.84859818 99.36144769 C593.85887295 105.3694299 593.85669765 111.3773524 593.85241759 117.3853395 C593.84994939 123.87088269 593.85896578 130.35641153 593.86645508 136.84194946 C593.87962468 149.54297238 593.8810015 162.2439764 593.87865482 174.94500478 C593.8768203 185.2711633 593.8785851 195.59731561 593.88287926 205.92347336 C593.88348167 207.40841629 593.88408286 208.89335922 593.88468286 210.37830215 C593.88559014 212.61615019 593.88649881 214.85399822 593.88741521 217.09184626 C593.89584238 237.89328081 593.90018215 258.69471304 593.89600849 279.49614906 C593.89585212 280.27997583 593.89569574 281.0638026 593.89553462 281.8713817 C593.89472888 285.84387146 593.8938831 289.81636122 593.89302132 293.78885098 C593.89285024 294.57775879 593.89267915 295.3666666 593.89250288 296.1794807 C593.89215622 297.7748441 593.89180769 299.3702075 593.89145729 300.9655709 C593.88610219 325.77966346 593.89402545 350.59372047 593.91249084 375.4078064 C593.93322734 403.30630491 593.94393028 431.2047814 593.93991536 459.10328805 C593.93952003 462.08070333 593.93915848 465.05811862 593.93881798 468.03553391 C593.93872725 468.76861227 593.93863651 469.50169063 593.93854303 470.25698348 C593.93737912 481.30317391 593.94400974 492.34934203 593.9546299 503.39552689 C593.96670393 515.96650233 593.9679385 528.5374253 593.95583973 541.10840161 C593.94995705 547.51856157 593.9488348 553.9286259 593.96084213 560.33877945 C593.97172107 566.21500081 593.96857351 572.09104693 593.95458045 577.96726017 C593.95193904 580.08498555 593.95428241 582.20272476 593.96231631 584.32043655 C594.05653792 611.02576049 589.29169407 633.15291214 570.5763092 653.38095093 C558.9802182 664.59594974 545.30586255 671.26979289 529.5763092 674.38095093 C528.83516339 674.54765215 528.09401758 674.71435336 527.33041281 674.88610613 C516.91533901 676.96383588 506.45848129 676.66534682 495.88796997 676.64837646 C493.67756048 676.65211636 491.46715232 676.65671923 489.25674623 676.66210711 C483.20174095 676.67431078 477.14679102 676.67407973 471.09177625 676.67171836 C465.22582126 676.67135155 459.35988516 676.68034228 453.49393756 676.68894414 C440.01864209 676.70825316 426.54336188 676.71391124 413.06805421 676.71505825 C402.65661804 676.71597866 392.24518782 676.72010223 381.83375359 676.7264595 C378.83271152 676.72825471 375.83166945 676.73003434 372.83062738 676.73180926 C371.7113928 676.7324724 371.7113928 676.7324724 370.56954742 676.73314894 C349.58985593 676.7454522 328.61016649 676.75335061 307.63047123 676.75246239 C306.83999705 676.75243123 306.04952287 676.75240007 305.23509493 676.75236797 C301.22900509 676.75220177 297.22291526 676.75200368 293.21682543 676.75179856 C292.42126005 676.75175866 291.62569468 676.75171877 290.80602126 676.75167768 C289.19719382 676.7515968 287.58836638 676.7515132 285.97953894 676.75142689 C260.96383948 676.75020212 235.9481943 676.76520312 210.93251038 676.79257202 C182.79994116 676.82333864 154.66740759 676.84050171 126.5348205 676.83864558 C123.53094924 676.83849633 120.52707798 676.83839891 117.52320671 676.83833694 C116.41383983 676.83830198 116.41383983 676.83830198 115.2820615 676.83826631 C103.41473849 676.83820494 91.54746285 676.85094036 79.68015389 676.86820147 C67.73758211 676.88521187 55.79507911 676.88708974 43.85250188 676.87398283 C37.39117943 676.86747034 30.93002743 676.86727383 24.46872139 676.88468933 C18.54109285 676.9005013 12.61376875 676.89747379 6.68614727 676.88012107 C4.55424733 676.87706897 2.42232421 676.88061506 0.29045165 676.89184122 C-17.65085512 676.97997751 -36.2212547 675.84084886 -52.4236908 667.38095093 C-53.27833923 666.94009155 -54.13298767 666.49923218 -55.01353455 666.04501343 C-61.61752335 662.36143262 -67.04816043 657.66806796 -72.4236908 652.38095093 C-73.4755658 651.34841187 -73.4755658 651.34841187 -74.5486908 650.29501343 C-83.24813179 641.15380394 -89.4122173 629.62065262 -92.4236908 617.38095093 C-92.59039201 616.73495347 -92.75709323 616.08895602 -92.928846 615.42338288 C-95.16151621 605.313184 -94.70753359 595.00371481 -94.69111633 584.71002197 C-94.69485545 582.48937517 -94.69945802 580.26872969 -94.70484698 578.04808629 C-94.71706001 571.96029614 -94.7168185 565.87256102 -94.71445823 559.78476143 C-94.71409163 553.88872226 -94.72307968 547.99270192 -94.731684 542.09667011 C-94.75099906 528.5518098 -94.7566513 515.00696467 -94.75779812 501.46209221 C-94.7587182 490.99911034 -94.76284006 480.53613439 -94.76919937 470.07315445 C-94.77099454 467.05830642 -94.77277417 464.04345839 -94.77454913 461.02861035 C-94.77499122 460.27904767 -94.77543332 459.529485 -94.77588881 458.7572083 C-94.78819277 437.6807037 -94.7960904 416.60420115 -94.79520226 395.52769279 C-94.7951711 394.733486 -94.79513994 393.93927921 -94.79510784 393.12100555 C-94.79494163 389.09589994 -94.79474355 385.07079434 -94.79453842 381.04568873 C-94.79449853 380.24633035 -94.79445864 379.44697196 -94.79441754 378.62339059 C-94.79433667 377.00689357 -94.79425307 375.39039654 -94.79416676 373.77389952 C-94.79294159 348.63084925 -94.80794996 323.48785295 -94.83531189 298.34481812 C-94.86606174 270.07715435 -94.88324263 241.80952603 -94.88138545 213.54184449 C-94.88123619 210.52511032 -94.88113877 207.50837616 -94.88107681 204.491642 C-94.8810535 203.74888158 -94.8810302 203.00612117 -94.88100618 202.24085287 C-94.88094475 190.31038625 -94.89369281 178.37996665 -94.91094134 166.449514 C-94.92793071 154.44975888 -94.92984587 142.45007222 -94.9167227 130.45031171 C-94.91019977 123.95506261 -94.9100518 117.45998317 -94.9274292 110.96475029 C-94.9431943 105.01076865 -94.94026087 99.05709068 -94.92286094 93.10311629 C-94.91979865 90.95712585 -94.92339408 88.81111255 -94.93458109 86.66514908 C-95.04626033 63.70910858 -91.36245419 43.99747889 -75.4236908 26.38095093 C-74.75853455 25.62298218 -74.0933783 24.86501343 -73.4080658 24.08407593 C-53.73376941 2.95242425 -27.35584982 -0.09330695 0 0 Z " fill="#070707" transform="translate(262.42369079589844,173.61904907226563)"/>
<path d="M0 0 C68.64 0 137.28 0 208 0 C208 24.75 208 49.5 208 75 C166.42 75 124.84 75 82 75 C82 114.27 82 153.54 82 194 C117.31 194 152.62 194 189 194 C189 217.76 189 241.52 189 266 C153.36 266 117.72 266 81 266 C81 334.31 81 402.62 81 473 C54.27 473 27.54 473 0 473 C0 316.91 0 160.82 0 0 Z " fill="#FEFEFE" transform="translate(269,275)"/>
<path d="M0 0 C79.2 0 158.4 0 240 0 C240 24.75 240 49.5 240 75 C214.26 75 188.52 75 162 75 C162 206.34 162 337.68 162 473 C135.27 473 108.54 473 81 473 C81 341.66 81 210.32 81 75 C54.27 75 27.54 75 0 75 C0 50.25 0 25.5 0 0 Z " fill="#FDFDFD" transform="translate(515,275)"/>
<path d="M0 0 C0.85966327 0.00496818 1.71932655 0.00993636 2.60504022 0.01505509 C3.97383747 0.01114416 3.97383747 0.01114416 5.37028718 0.00715423 C8.46255393 0.00080156 11.55462164 0.0088498 14.64688268 0.0167059 C16.8724383 0.01511933 19.09799343 0.01265725 21.32354721 0.00938949 C27.46624852 0.00294556 33.60888442 0.00906758 39.75158146 0.01715377 C45.68744298 0.02303553 51.62329677 0.01956437 57.55915867 0.01632456 C69.70743401 0.01003958 81.85568998 0.01323236 94.00396314 0.02191868 C106.04026944 0.03052318 118.07656704 0.03543908 130.11287656 0.03525105 C130.86064072 0.03524341 131.60840488 0.03523576 132.37882856 0.03522788 C135.41402128 0.03518698 138.449214 0.03512137 141.48440672 0.03502207 C169.97996141 0.03411522 198.47550282 0.04407206 226.97105289 0.05945174 C252.30047266 0.07307222 277.62988299 0.07931323 302.95930639 0.07864133 C304.58519038 0.07860091 306.21107437 0.07856055 307.83695836 0.07852025 C308.64075458 0.0784999 309.4445508 0.07847954 310.27270449 0.07845858 C314.31871205 0.07835778 318.36471961 0.0782672 322.41072717 0.07818833 C323.20890057 0.07817162 324.00707396 0.0781549 324.82943443 0.07813768 C345.97716814 0.07777263 367.12490068 0.08231005 388.2726334 0.08851489 C389.02478747 0.08873517 389.77694153 0.08895544 390.55188814 0.08918238 C393.57664738 0.09007064 396.60140661 0.09095904 399.62616584 0.09187334 C410.15819339 0.09503534 420.69022 0.09654287 431.22224799 0.09698483 C444.79574829 0.09758154 458.3692408 0.10156809 471.94273777 0.11141629 C478.49105958 0.11608518 485.03937387 0.11907699 491.58769765 0.11782208 C497.57647337 0.11673004 503.56522779 0.12022709 509.55399906 0.12747061 C511.72628768 0.12928941 513.89857848 0.12940894 516.07086719 0.12770332 C519.01276977 0.12564836 521.95460192 0.12968489 524.89649835 0.13530961 C525.74913813 0.13325429 526.6017779 0.13119897 527.48025525 0.12908137 C531.43480724 0.14298807 535.07888579 0.2823056 538.939531 1.26394406 C536.31538599 3.88808906 534.45162411 3.50605167 530.879062 3.52788812 C529.58956709 3.52043585 529.58956709 3.52043585 528.27402177 3.51283303 C526.90522453 3.51674396 526.90522453 3.51674396 525.50877482 3.52073389 C522.41650807 3.52708656 519.32444035 3.51903832 516.23217931 3.51118222 C514.0066237 3.51276879 511.78106856 3.51523086 509.55551478 3.51849863 C503.41281348 3.52494256 497.27017757 3.51882054 491.12748054 3.51073435 C485.19161902 3.50485259 479.25576522 3.50832375 473.31990333 3.51156356 C461.17162798 3.51784854 449.02337201 3.51465576 436.87509885 3.50596943 C424.83879255 3.49736494 412.80249495 3.49244904 400.76618543 3.49263707 C399.6445392 3.49264854 399.6445392 3.49264854 398.50023344 3.49266024 C395.46504072 3.49270114 392.429848 3.49276675 389.39465527 3.49286605 C360.89910059 3.4937729 332.40355918 3.48381606 303.90800911 3.46843638 C278.57858934 3.4548159 253.24917901 3.44857489 227.91975561 3.44924679 C226.29387162 3.44928721 224.66798763 3.44932757 223.04210364 3.44936787 C221.8364093 3.4493984 221.8364093 3.4493984 220.60635751 3.44942954 C216.56034995 3.44953033 212.51434239 3.44962092 208.46833482 3.44969979 C207.67016143 3.4497165 206.87198804 3.44973322 206.04962757 3.44975044 C184.90189385 3.45011549 163.75416132 3.44557807 142.60642859 3.43937322 C141.4781975 3.43904282 141.4781975 3.43904282 140.32717386 3.43870573 C137.30241462 3.43781748 134.27765538 3.43692908 131.25289615 3.43601478 C120.72086861 3.43285278 110.188842 3.43134525 99.65681401 3.43090329 C86.08331371 3.43030657 72.5098212 3.42632003 58.93632423 3.41647183 C52.38800242 3.41180294 45.83968813 3.40881113 39.29136434 3.41006604 C33.30258863 3.41115808 27.31383421 3.40766103 21.32506294 3.40041751 C19.15277432 3.39859871 16.98048352 3.39847918 14.80819481 3.4001848 C11.86629223 3.40223976 8.92446008 3.39820323 5.98256364 3.39257851 C5.12992387 3.39463383 4.27728409 3.39668915 3.39880675 3.39880675 C-0.55574524 3.38490005 -4.19982379 3.24558252 -8.060469 2.26394406 C-5.436324 -0.36020095 -3.57256211 0.02183645 0 0 Z " fill="#121212" transform="translate(246.0604690015316,173.73605594038963)"/>
<path d="M0 0 C0.99 0 1.98 0 3 0 C4.32 2.31 5.64 4.62 7 7 C5.0625 6.6875 5.0625 6.6875 3 6 C2.67 5.01 2.34 4.02 2 3 C1.34 2.67 0.68 2.34 0 2 C0 1.34 0 0.68 0 0 Z " fill="#111111" transform="translate(839,207)"/>
</svg>
