<?xml version="1.0" encoding="utf-8" ?>
<svg baseProfile="tiny" height="1024" version="1.2" width="1024" xmlns="http://www.w3.org/2000/svg" xmlns:ev="http://www.w3.org/2001/xml-events" xmlns:xlink="http://www.w3.org/1999/xlink"><defs /><polygon fill="black" points="242,174 241,175 233,175 232,176 228,176 227,177 224,177 223,178 220,178 219,179 217,179 216,180 215,180 214,181 212,181 211,182 210,182 209,183 208,183 207,184 206,184 204,186 203,186 201,188 200,188 197,191 196,191 184,203 184,204 181,207 181,208 179,210 179,211 178,212 178,213 176,215 176,216 175,217 175,218 174,219 174,221 173,222 173,223 172,224 172,227 171,228 171,230 170,231 170,235 169,236 169,241 168,242 168,779 169,780 169,786 170,787 170,790 171,791 171,794 172,795 172,797 173,798 173,800 174,801 174,802 175,803 175,804 176,805 176,806 177,807 177,808 178,809 178,810 180,812 180,813 182,815 182,816 185,819 185,820 197,832 198,832 201,835 202,835 204,837 205,837 206,838 207,838 208,839 209,839 210,840 211,840 212,841 213,841 214,842 215,842 216,843 218,843 219,844 221,844 222,845 225,845 226,846 230,846 231,847 235,847 236,848 247,848 248,849 775,849 776,848 786,848 787,847 792,847 793,846 796,846 797,845 800,845 801,844 803,844 804,843 806,843 807,842 808,842 809,841 810,841 811,840 812,840 813,839 814,839 815,838 816,838 817,837 818,837 820,835 821,835 823,833 824,833 830,827 831,827 835,823 835,822 839,818 839,817 842,814 842,813 844,811 844,810 845,809 845,808 846,807 846,806 847,805 847,804 848,803 848,802 849,801 849,800 850,799 850,797 851,796 851,793 852,792 852,789 853,788 853,784 854,783 854,777 855,776 855,246 854,245 854,239 853,238 853,234 852,233 852,230 851,229 851,227 850,226 850,224 849,223 849,221 848,220 848,219 847,218 847,217 846,216 846,215 845,214 845,213 843,211 843,210 841,208 841,207 838,204 838,203 826,191 825,191 822,188 821,188 819,186 818,186 816,184 815,184 814,183 813,183 812,182 811,182 810,181 808,181 807,180 806,180 805,179 803,179 802,178 798,178 797,177 794,177 793,176 789,176 788,175 779,175 778,174" /></svg>